<svg width="949" height="324" viewBox="0 0 949 324" xmlns="http://www.w3.org/2000/svg"><title>website-title</title><path d="M168.153 201.974c8.607 23.895 4.252 50.487-13.603 68.342l-35.72 35.72c-25.448 25.448-68.68 23.492-96.558-4.388-27.882-27.88-29.852-71.125-4.403-96.574l35.723-35.723c17.665-17.665 43.902-22.107 67.628-13.842l-70.924 70.925c-13.619 13.618-14.2 35.107-1.297 48.01 12.888 12.889 34.374 12.304 47.992-1.315l71.158-71.159.004.004zM301.477 22.449c27.882 27.882 29.837 71.109 4.389 96.556l-34.319 34.319c-17.854 17.854-44.444 22.208-68.341 13.602l71.025-71.025c13.616-13.616 14.2-35.105 1.314-47.991-12.903-12.902-34.39-12.323-48.01 1.295l-70.788 70.789c-8.274-23.723-3.826-49.957 13.844-67.626l34.32-34.321c25.439-25.454 68.684-23.48 96.566 4.402zm-75.02 75.027c7.07 7.072 7.015 18.587-.126 25.757l-103.02 103.02c-7.153 7.153-18.684 7.197-25.757.126-7.088-7.088-7.03-18.606.124-25.759l.017-.019-.016-.017L200.68 97.583l.017.016c7.173-7.138 18.67-7.21 25.758-.123zm185.518-20.609h5.513c5.761 0 10.182-1.192 13.261-3.576 3.08-2.384 4.619-5.811 4.619-10.281 0-4.47-1.54-7.897-4.619-10.281-3.08-2.384-7.5-3.576-13.261-3.576h-5.513v27.714zM476.194 139h-36.356l-27.863-43.21V139h-29.204V26.654h45.445c6.258 0 11.721.919 16.39 2.756 4.669 1.838 8.518 4.346 11.548 7.525 3.03 3.179 5.314 6.854 6.853 11.026 1.54 4.172 2.31 8.642 2.31 13.41 0 8.543-2.061 15.471-6.183 20.785-4.123 5.315-10.207 8.916-18.253 10.803L476.194 139zm55.187-49.319c-.894-3.775-2.732-6.804-5.513-9.089-2.782-2.285-6.16-3.427-10.132-3.427-4.173 0-7.575 1.093-10.207 3.278-2.632 2.185-4.296 5.265-4.991 9.238h30.843zm-31.588 15.645c0 11.622 5.463 17.433 16.39 17.433 5.86 0 10.28-2.384 13.26-7.152h26.076c-5.265 17.483-18.427 26.224-39.485 26.224-6.457 0-12.367-.968-17.731-2.905-5.365-1.938-9.959-4.694-13.783-8.27-3.824-3.576-6.78-7.847-8.865-12.814-2.087-4.967-3.13-10.53-3.13-16.688 0-6.357.994-12.094 2.98-17.21 1.987-5.115 4.818-9.461 8.494-13.037 3.675-3.576 8.12-6.332 13.335-8.27 5.215-1.937 11.1-2.905 17.657-2.905 6.456 0 12.267.968 17.433 2.906 5.165 1.937 9.535 4.743 13.112 8.418 3.576 3.675 6.307 8.17 8.195 13.484 1.887 5.315 2.83 11.3 2.83 17.955v2.831h-56.768zm90.35-89.996V139h-26.969V15.33h26.969zm34.774 85.228c0 2.483.447 4.793 1.34 6.928.895 2.136 2.111 3.999 3.651 5.588 1.54 1.59 3.377 2.831 5.513 3.725 2.136.894 4.445 1.341 6.929 1.341 2.384 0 4.643-.447 6.779-1.341 2.136-.894 3.973-2.136 5.513-3.725a19.26 19.26 0 0 0 3.725-5.513c.944-2.086 1.416-4.321 1.416-6.705 0-2.384-.472-4.644-1.416-6.78-.944-2.135-2.185-3.998-3.725-5.587-1.54-1.59-3.377-2.831-5.513-3.725-2.136-.894-4.395-1.341-6.78-1.341-2.483 0-4.792.447-6.928 1.341-2.136.894-3.973 2.136-5.513 3.725a18.36 18.36 0 0 0-3.65 5.438c-.894 2.037-1.341 4.247-1.341 6.631zm33.972-37.995h27.118V139h-27.118v-8.493c-5.762 7.251-13.56 10.877-23.393 10.877-5.563 0-10.679-1.018-15.347-3.054a37.011 37.011 0 0 1-12.218-8.568c-3.477-3.675-6.184-7.996-8.121-12.963-1.937-4.967-2.905-10.38-2.905-16.241 0-5.463.943-10.653 2.83-15.57 1.888-4.918 4.52-9.214 7.898-12.889 3.377-3.675 7.4-6.58 12.069-8.717 4.668-2.135 9.833-3.203 15.496-3.203 9.536 0 17.432 3.328 23.69 9.983v-7.599zm66.808 22.499V139h-26.969V85.062h-8.94V62.563h8.94V39.617h26.969v22.946h15.347v22.499h-15.347zm45.8-22.499V139h-26.97V62.563h26.97zM742.74 33.21c0-2.086.397-4.048 1.192-5.886a15.457 15.457 0 0 1 8.12-8.12c1.838-.795 3.8-1.192 5.886-1.192 2.086 0 4.047.397 5.885 1.192a15.457 15.457 0 0 1 8.12 8.12c.795 1.838 1.193 3.8 1.193 5.886 0 2.086-.398 4.048-1.192 5.886a15.457 15.457 0 0 1-8.121 8.12c-1.838.795-3.8 1.192-5.885 1.192-2.086 0-4.048-.397-5.886-1.192a15.457 15.457 0 0 1-8.12-8.12c-.795-1.838-1.192-3.8-1.192-5.886zm61.146 29.353l18.178 39.187 18.476-39.187h30.098L830.855 139h-18.029L773.49 62.563h30.396zm119.555 27.118c-.894-3.775-2.732-6.804-5.513-9.089-2.782-2.285-6.16-3.427-10.132-3.427-4.172 0-7.575 1.093-10.207 3.278-2.632 2.185-4.296 5.265-4.991 9.238h30.843zm-31.588 15.645c0 11.622 5.463 17.433 16.39 17.433 5.86 0 10.28-2.384 13.26-7.152h26.076c-5.265 17.483-18.427 26.224-39.485 26.224-6.457 0-12.367-.968-17.731-2.905-5.364-1.938-9.959-4.694-13.783-8.27-3.824-3.576-6.78-7.847-8.865-12.814-2.086-4.967-3.13-10.53-3.13-16.688 0-6.357.994-12.094 2.98-17.21 1.987-5.115 4.818-9.461 8.494-13.037 3.675-3.576 8.12-6.332 13.335-8.27 5.215-1.937 11.1-2.905 17.657-2.905 6.456 0 12.267.968 17.433 2.906 5.165 1.937 9.536 4.743 13.112 8.418 3.576 3.675 6.307 8.17 8.195 13.484 1.887 5.315 2.83 11.3 2.83 17.955v2.831h-56.768zm-479.878 76.328v61.09c0 3.278.124 6.63.373 10.058.248 3.427.993 6.53 2.234 9.312 1.242 2.781 3.204 5.041 5.886 6.78 2.682 1.738 6.457 2.607 11.324 2.607s8.617-.87 11.25-2.607c2.632-1.739 4.594-3.999 5.885-6.78 1.291-2.781 2.061-5.885 2.31-9.312.248-3.428.372-6.78.372-10.058v-61.09h29.055v65.113c0 17.483-3.998 30.247-11.994 38.293-7.997 8.046-20.29 12.069-36.878 12.069-16.589 0-28.906-4.023-36.952-12.069-8.046-8.046-12.069-20.81-12.069-38.293v-65.113h29.204zm112.7 50.213h5.514c5.76 0 10.181-1.192 13.26-3.576 3.08-2.384 4.62-5.811 4.62-10.281 0-4.47-1.54-7.897-4.62-10.281-3.079-2.384-7.5-3.576-13.26-3.576h-5.513v27.714zM588.896 294H552.54l-27.863-43.21V294h-29.204V181.654h45.445c6.258 0 11.72.919 16.39 2.757 4.668 1.837 8.517 4.345 11.547 7.524 3.03 3.179 5.314 6.854 6.854 11.026s2.31 8.642 2.31 13.41c0 8.543-2.062 15.471-6.184 20.785-4.122 5.315-10.206 8.916-18.252 10.803L588.895 294zm32.687-112.346v87.612h35.015V294h-64.219V181.654h29.204z" fill="#00FFF0" fill-rule="evenodd"/></svg>