<svg width="256" height="256" viewBox="0 0 256 256" xmlns="http://www.w3.org/2000/svg"><title>icon@2x</title><g fill="none" fill-rule="evenodd"><path fill="#00E9FF" d="M0 0h256v256H0z"/><path d="M131.076 147.987c4.304 11.947 2.126 25.244-6.8 34.17l-17.861 17.861c-12.724 12.724-34.34 11.746-48.279-2.194-13.94-13.94-14.926-35.562-2.202-48.287l17.862-17.861c8.832-8.833 21.951-11.054 33.814-6.922l-35.462 35.463c-6.81 6.809-7.1 17.554-.648 24.005 6.444 6.444 17.187 6.152 23.996-.658l35.579-35.579.001.002zm66.663-89.763c13.94 13.941 14.918 35.555 2.194 48.279l-17.16 17.159c-8.926 8.927-22.221 11.104-34.17 6.801l35.513-35.513c6.807-6.808 7.1-17.552.656-23.995-6.45-6.451-17.195-6.162-24.004.647l-35.394 35.395c-4.138-11.861-1.913-24.978 6.922-33.813l17.16-17.16c12.719-12.727 34.342-11.74 48.283 2.2zm-37.51 37.514c3.535 3.536 3.507 9.293-.063 12.878l-51.51 51.51c-3.577 3.577-9.343 3.6-12.879.063-3.544-3.544-3.515-9.303.062-12.879l.009-.01-.009-.008 51.502-51.5.008.008c3.586-3.57 9.335-3.606 12.88-.062z" fill="#FFF"/></g></svg>