<svg width="256" height="256" viewBox="0 0 256 256" xmlns="http://www.w3.org/2000/svg"><title>icon</title><desc>Created with Sketch.</desc><g fill="none"><path fill="#009990" d="M0 0h256v256H0z"/><path d="M131.41 150.146c4.767 13.238 2.354 27.97-7.537 37.862l-19.79 19.79c-14.098 14.098-38.05 13.015-53.494-2.43-15.45-15.447-16.54-39.405-2.44-53.504l19.79-19.79c9.784-9.788 24.32-12.25 37.465-7.67l-39.293 39.293c-7.545 7.545-7.867 19.45-.72 26.6 7.14 7.14 19.045 6.815 26.59-.73l39.422-39.423.002.002zm73.862-99.46c15.447 15.448 16.53 39.396 2.432 53.494l-19.013 19.013c-9.89 9.892-24.62 12.304-37.86 7.536l39.35-39.35c7.544-7.546 7.867-19.45.728-26.59-7.148-7.148-19.052-6.827-26.598.717l-39.218 39.217c-4.583-13.143-2.12-27.677 7.67-37.466l19.015-19.014c14.093-14.1 38.05-13.008 53.498 2.44zM163.71 92.254c3.917 3.918 3.887 10.297-.07 14.27l-57.075 57.074c-3.962 3.963-10.35 3.987-14.27.07-3.926-3.927-3.893-10.308.07-14.27l.01-.01-.01-.01L149.43 92.31l.01.01c3.973-3.955 10.343-3.996 14.27-.07z" fill="#00FFF0"/></g></svg>