<?xml version="1.0" encoding="utf-8"?>
<!-- Generator: Adobe Illustrator 16.2.1, SVG Export Plug-In . SVG Version: 6.00 Build 0)  -->
<!DOCTYPE svg PUBLIC "-//W3C//DTD SVG 1.1//EN" "http://www.w3.org/Graphics/SVG/1.1/DTD/svg11.dtd">
<svg version="1.1" id="Layer_1" xmlns="http://www.w3.org/2000/svg" xmlns:xlink="http://www.w3.org/1999/xlink" x="0px" y="0px"
	 width="2018px" height="294px" viewBox="0 0 2018 294" enable-background="new 0 0 2018 294" xml:space="preserve">
<g id="Text">
	<g>
		<path fill="#009A91" d="M492.051,93.794c0,16.772-3.769,31.496-11.307,44.167c-7.538,12.676-19.499,21.805-35.874,27.396
			l28.197,78.83c0.37,1.117,0.558,1.864,0.558,2.235c0,1.118-0.418,2.097-1.256,2.937c-0.837,0.839-2.094,1.258-3.77,1.258H428.12
			c-1.492,0-2.469-0.561-2.931-1.678c-0.468-1.118-0.978-2.42-1.536-3.914l-25.125-70.724h-0.279c-0.558,0-1.256,0.048-2.094,0.14
			c-0.837,0.097-1.814,0.141-2.932,0.141c-2.979,0-6.377-0.092-10.189-0.279c-3.817-0.184-7.027-0.279-9.631-0.279l-12.284,71.004
			c-0.375,1.494-1.213,2.795-2.514,3.912c-1.304,1.119-2.699,1.679-4.188,1.679h-36.293c-2.979,0-4.467-1.489-4.467-4.474v-0.838
			v-0.279l32.942-187.573c0.93-4.844,2.513-8.106,4.746-9.784c2.234-1.678,5.583-2.887,10.05-3.634
			c3.351-0.559,7.303-1.07,11.865-1.537c4.559-0.463,9.353-0.839,14.377-1.118c5.025-0.28,10.233-0.511,15.635-0.699
			c5.396-0.183,10.607-0.279,15.634-0.279c10.421,0,20.1,1.026,29.034,3.075c8.934,2.053,16.654,5.22,23.172,9.504
			c6.512,4.29,11.629,9.784,15.354,16.493C490.188,76.183,492.051,84.29,492.051,93.794z M444.312,99.944
			c0-7.268-2.7-12.252-8.097-14.956c-5.399-2.699-13.588-4.053-24.566-4.053c-0.935,0-2.47,0.048-4.606,0.14
			c-2.142,0.096-4.327,0.188-6.561,0.279c-2.233,0.096-4.375,0.188-6.422,0.28c-2.05,0.096-3.445,0.14-4.188,0.14l-9.492,53.672
			c0.742,0,2.046,0.048,3.909,0.14c1.858,0.096,3.812,0.188,5.862,0.279c2.046,0.096,4,0.14,5.862,0.14c1.858,0,3.163,0,3.909,0
			c6.883,0,13.073-0.511,18.565-1.537c5.486-1.022,10.142-2.839,13.958-5.451c3.812-2.608,6.744-6.29,8.794-11.042
			C443.287,113.222,444.312,107.212,444.312,99.944z"/>
		<path fill="#009A91" d="M652.016,146.627c0,2.424-0.14,4.893-0.419,7.408c-0.278,2.517-0.605,5.08-0.977,7.688l-2.792,16.215
			c-0.934,4.473-3.258,6.709-6.979,6.709h-89.614c-0.375,2.053-0.654,4.053-0.837,6.01c-0.188,1.957-0.279,3.773-0.279,5.451
			c0,7.269,1.906,12.348,5.723,15.234c3.812,2.893,10.19,4.333,19.124,4.333c4.467,0,9.256-0.092,14.377-0.28
			c5.117-0.183,10.143-0.418,15.075-0.697c4.929-0.279,9.584-0.561,13.959-0.84c4.371-0.278,7.957-0.51,10.748-0.698
			c2.233-0.183,3.769,0,4.606,0.56c0.837,0.559,1.068,1.865,0.697,3.913l-3.907,21.245c-0.375,2.236-0.978,3.914-1.814,5.032
			c-0.838,1.118-2.561,1.957-5.165,2.516c-9.309,2.236-18.382,3.914-27.219,5.032c-8.842,1.118-19.312,1.677-31.407,1.677
			c-7.634,0-14.936-1.118-21.915-3.354c-6.979-2.236-13.217-5.634-18.705-10.203c-5.492-4.563-9.867-10.388-13.122-17.472
			c-3.258-7.08-4.885-15.467-4.885-25.158c0-2.42,0.14-4.937,0.418-7.549c0.279-2.606,0.602-5.312,0.978-8.105l3.351-19.568
			c4.279-24.412,13.492-42.77,27.638-55.068c14.143-12.3,32.755-18.45,55.834-18.45c9.492,0,17.819,1.494,24.986,4.473
			c7.163,2.983,13.165,7.128,18.007,12.439c4.837,5.311,8.467,11.509,10.888,18.589C650.803,130.79,652.016,138.429,652.016,146.627
			z M609.861,144.391c0-6.521-1.676-11.461-5.025-14.815s-8.934-5.032-16.75-5.032c-9.492,0-16.707,2.935-21.636,8.806
			c-4.935,5.87-8.423,13.654-10.469,23.341h52.484c0.371-2.235,0.698-4.377,0.978-6.43
			C609.721,148.213,609.861,146.256,609.861,144.391z"/>
		<path fill="#009A91" d="M746.375,41.799l-35.734,202.948c-0.375,1.493-1.165,2.843-2.373,4.053
			c-1.212,1.216-2.561,1.817-4.048,1.817h-34.059c-1.492,0-2.652-0.463-3.49-1.397c-0.837-0.931-1.256-2.141-1.256-3.635v-0.838
			l35.734-202.948c0.37-1.489,1.208-2.795,2.512-3.914c1.3-1.118,2.696-1.677,4.188-1.677h34.06c2.975,0,4.467,1.494,4.467,4.473
			V41.799L746.375,41.799z"/>
		<path fill="#009A91" d="M834.873,88.204c9.492,0,19.215,0.559,29.174,1.677c9.954,1.118,19.494,2.891,28.615,5.311
			c3.163,0.935,5.256,1.865,6.281,2.795c1.021,0.935,1.348,2.795,0.978,5.591l-24.567,141.447c-0.375,1.494-0.977,2.795-1.814,3.914
			c-0.837,1.117-2.373,1.678-4.606,1.678h-28.476c-1.492,0-2.748-0.459-3.77-1.385c-1.024-0.922-1.353-2.307-0.978-4.158
			l1.117-8.037c-7.633,5.923-14.893,10.086-21.775,12.488c-6.888,2.401-14.055,3.606-21.497,3.606
			c-8.375,0-15.542-1.493-21.496-4.473c-5.958-2.979-10.796-6.94-14.517-11.88c-3.725-4.938-6.469-10.623-8.236-17.053
			c-1.771-6.43-2.651-13.183-2.651-20.268c0-2.607,0.14-5.215,0.418-7.827c0.278-2.606,0.602-5.215,0.977-7.827
			c0.56-4.097,1.208-7.826,1.955-11.182c0.558-2.979,1.021-5.87,1.396-8.666c0.37-2.795,0.741-4.936,1.116-6.43
			c4.279-24.412,13.584-42.071,27.917-52.973C794.764,93.654,812.91,88.204,834.873,88.204z M850.507,127.339
			c-2.607-0.372-5.862-0.743-9.771-1.118c-3.909-0.372-7.817-0.559-11.727-0.559c-10.05,0-17.355,2.892-21.915,8.666
			c-4.562,5.779-7.864,14.354-9.911,25.718l-5.024,29.353c-0.56,3.17-0.838,6.246-0.838,9.225c0,4.661,1.068,8.666,3.211,12.021
			c2.137,3.354,6.373,5.031,12.702,5.031c4.837,0,9.814-0.979,14.936-2.936c5.117-1.957,10.002-4.236,14.656-6.85L850.507,127.339z"
			/>
		<path fill="#009A91" d="M1024.151,96.031l-4.188,22.643c-0.375,1.494-1.165,2.795-2.373,3.914
			c-1.213,1.118-2.561,1.677-4.048,1.677H990.65l-14.518,81.346c-0.558,3.354-0.837,5.967-0.837,7.828
			c0,2.053,0.558,3.449,1.675,4.191c1.117,0.747,3.163,1.118,6.143,1.118h13.679c1.488,0,2.696,0.28,3.629,0.839
			c0.929,0.561,1.396,1.586,1.396,3.075v0.839l-3.909,21.805c-0.559,3.17-2.608,5.031-6.143,5.59
			c-4.283,0.744-8.096,1.303-11.445,1.679c-3.351,0.37-7.062,0.559-11.127,0.559c-12.765,0-22.521-2.516-29.274-7.548
			c-6.753-5.031-10.129-13.697-10.129-25.997c0-2.049,0.135-4.284,0.414-6.709c0.279-2.42,0.602-4.937,0.973-7.548l14.15-81.067
			l-21.68-3.634c-3.167-0.559-4.746-2.236-4.746-5.032v-0.839l3.07-18.45c0.371-1.489,1.257-2.839,2.652-4.053
			c1.396-1.21,2.835-1.817,4.328-1.817h22.203l3.882-22.923c0.371-1.489,1.156-2.699,2.36-3.634c1.204-0.93,2.635-1.581,4.301-1.957
			l35.093-5.87h0.838c2.792,0,4.188,1.306,4.188,3.914v0.838l-5.305,29.632h22.893c3.162,0,4.746,1.585,4.746,4.752V96.031
			L1024.151,96.031z"/>
		<path fill="#009A91" d="M1091.709,90.44c1.488,0,2.744,0.419,3.77,1.258c1.021,0.838,1.349,2.284,0.978,4.333l-26.242,148.996
			c-0.375,1.494-0.977,2.795-1.813,3.912c-0.837,1.119-2.469,1.679-4.887,1.679h-34.06c-3.537,0-5.024-1.86-4.467-5.591
			l26.242-148.996c0.37-1.49,1.159-2.795,2.373-3.914c1.209-1.118,2.557-1.677,4.049-1.677H1091.709z M1059.604,72.549
			c-3.536,0-5.024-1.878-4.467-5.634l4.467-26.189c0.371-1.502,1.021-2.817,1.955-3.944c0.929-1.127,2.513-1.69,4.746-1.69h36.291
			c3.724,0,5.209,1.878,4.467,5.635l-4.467,26.189c-0.375,1.502-1.022,2.817-1.953,3.944c-0.934,1.126-2.512,1.69-4.746,1.69
			L1059.604,72.549L1059.604,72.549z"/>
		<path fill="#009A91" d="M1271.774,94.354c0,0.559-0.188,1.397-0.56,2.516l-57.51,126.912c-2.792,6.149-5.959,11.182-9.492,15.095
			c-3.537,3.914-7.307,6.896-11.307,8.945c-4.004,2.054-8.145,3.445-12.423,4.193c-4.283,0.742-8.473,1.117-12.562,1.117
			c-4.097,0-8.097-0.375-12.005-1.117c-3.908-0.748-7.446-2.141-10.607-4.193c-3.168-2.049-5.863-5.031-8.098-8.945
			c-2.232-3.913-3.629-8.945-4.188-15.095L1120.461,96.87v-0.56c0-1.677,0.511-3.075,1.535-4.193
			c1.021-1.118,2.277-1.677,3.77-1.677h35.455c1.487,0,2.604,0.559,3.351,1.673c0.741,1.118,1.208,2.511,1.396,4.184l4.746,109.327
			c0.184,3.905,1.3,5.856,3.352,5.856c2.046,0,3.812-1.951,5.304-5.856l43.271-109.327c0.741-1.673,1.72-3.066,2.933-4.184
			c1.208-1.114,2.556-1.673,4.048-1.673h38.247C1270.47,90.44,1271.774,91.746,1271.774,94.354z"/>
		<path fill="#009A91" d="M1419.455,146.627c0,2.424-0.141,4.893-0.419,7.408c-0.279,2.517-0.606,5.08-0.979,7.688l-2.791,16.215
			c-0.934,4.473-3.259,6.709-6.979,6.709h-89.615c-0.375,2.053-0.654,4.053-0.837,6.01c-0.188,1.957-0.279,3.773-0.279,5.451
			c0,7.269,1.906,12.348,5.724,15.234c3.812,2.893,10.189,4.333,19.124,4.333c4.466,0,9.256-0.092,14.377-0.28
			c5.116-0.183,10.142-0.418,15.074-0.697c4.931-0.279,9.584-0.561,13.959-0.84c4.371-0.278,7.956-0.51,10.748-0.698
			c2.233-0.183,3.77,0,4.606,0.56c0.838,0.559,1.067,1.865,0.698,3.913l-3.909,21.245c-0.375,2.236-0.978,3.914-1.814,5.032
			s-2.561,1.957-5.164,2.516c-9.309,2.236-18.382,3.914-27.22,5.032c-8.842,1.118-19.312,1.677-31.407,1.677
			c-7.634,0-14.936-1.118-21.915-3.354c-6.979-2.236-13.217-5.634-18.705-10.203c-5.49-4.563-9.866-10.388-13.12-17.472
			c-3.259-7.08-4.887-15.467-4.887-25.158c0-2.42,0.141-4.937,0.419-7.549c0.279-2.606,0.604-5.312,0.979-8.105l3.35-19.568
			c4.279-24.412,13.492-42.77,27.64-55.068c14.142-12.3,32.755-18.45,55.835-18.45c9.49,0,17.818,1.494,24.984,4.473
			c7.163,2.983,13.165,7.128,18.007,12.439c4.839,5.311,8.468,11.509,10.889,18.589
			C1418.242,130.79,1419.455,138.429,1419.455,146.627z M1377.3,144.391c0-6.521-1.675-11.461-5.024-14.815
			c-3.351-3.354-8.935-5.032-16.75-5.032c-9.492,0-16.707,2.935-21.638,8.806c-4.934,5.87-8.423,13.654-10.469,23.341h52.484
			c0.371-2.235,0.698-4.377,0.978-6.43C1377.16,148.213,1377.3,146.256,1377.3,144.391z"/>
		<path fill="#009A91" d="M1700.303,48.229l-22.055,124.396c-3.167,17.52-7.817,31.588-13.959,42.211
			c-6.143,10.622-13.356,18.777-21.636,24.46c-8.284,5.687-17.448,9.412-27.499,11.183c-10.051,1.769-20.658,2.654-31.825,2.654
			c-9.867,0-18.94-1.166-27.22-3.494c-8.284-2.328-15.402-5.962-21.357-10.902c-5.958-4.936-10.656-11.225-14.098-18.868
			c-3.446-7.64-5.165-16.772-5.165-27.396c0-3.166,0.092-6.334,0.278-9.505c0.185-3.166,0.65-6.612,1.396-10.343l22.055-124.396
			c0.371-1.49,1.161-2.748,2.373-3.774c1.209-1.022,2.558-1.538,4.049-1.538h36.571c3.163,0,4.746,1.494,4.746,4.473v0.839
			l-22.055,124.396c-1.117,6.15-1.676,11.648-1.676,16.493c0,8.386,2.095,14.491,6.281,18.31c4.188,3.822,11.21,5.73,21.077,5.73
			c6.325,0,11.726-0.79,16.192-2.376c4.467-1.581,8.234-4.005,11.307-7.269c3.071-3.259,5.583-7.451,7.538-12.58
			c1.954-5.123,3.581-11.225,4.885-18.31l22.055-124.396c0.371-1.49,1.161-2.748,2.373-3.774c1.209-1.022,2.558-1.538,4.05-1.538
			h36.292c1.486,0,2.695,0.376,3.63,1.118c0.929,0.747,1.396,1.865,1.396,3.354V48.229z"/>
		<path fill="#009A91" d="M1882.324,93.794c0,16.772-3.77,31.496-11.308,44.167c-7.536,12.676-19.498,21.805-35.873,27.396
			l28.196,78.83c0.371,1.117,0.559,1.864,0.559,2.235c0,1.118-0.418,2.097-1.257,2.937c-0.837,0.839-2.094,1.258-3.769,1.258h-40.48
			c-1.49,0-2.469-0.561-2.932-1.678c-0.466-1.118-0.977-2.42-1.535-3.914l-25.126-70.724h-0.278c-0.559,0-1.257,0.048-2.094,0.14
			c-0.838,0.097-1.814,0.141-2.932,0.141c-2.979,0-6.378-0.092-10.19-0.279c-3.815-0.184-7.026-0.279-9.631-0.279l-12.284,71.004
			c-0.375,1.494-1.212,2.795-2.513,3.912c-1.304,1.119-2.699,1.679-4.188,1.679h-36.292c-2.979,0-4.468-1.489-4.468-4.474v-0.838
			v-0.279l32.942-187.573c0.929-4.844,2.513-8.106,4.746-9.784c2.232-1.678,5.583-2.887,10.05-3.634
			c3.351-0.559,7.303-1.07,11.865-1.537c4.559-0.463,9.353-0.839,14.377-1.118c5.024-0.28,10.233-0.511,15.634-0.699
			c5.396-0.183,10.609-0.279,15.634-0.279c10.421,0,20.102,1.026,29.034,3.075c8.935,2.053,16.654,5.22,23.172,9.504
			c6.514,4.29,11.629,9.784,15.354,16.493C1880.462,76.183,1882.324,84.29,1882.324,93.794z M1834.586,99.944
			c0-7.268-2.7-12.252-8.096-14.956c-5.4-2.699-13.589-4.053-24.567-4.053c-0.934,0-2.47,0.048-4.605,0.14
			c-2.144,0.096-4.327,0.188-6.562,0.279c-2.232,0.096-4.376,0.188-6.422,0.28c-2.05,0.096-3.445,0.14-4.188,0.14l-9.491,53.672
			c0.741,0,2.046,0.048,3.908,0.14c1.857,0.096,3.812,0.188,5.861,0.279c2.046,0.096,4,0.14,5.863,0.14c1.857,0,3.162,0,3.908,0
			c6.883,0,13.073-0.511,18.563-1.537c5.488-1.022,10.144-2.839,13.959-5.451c3.812-2.608,6.744-6.29,8.794-11.042
			C1833.561,113.222,1834.586,107.212,1834.586,99.944z"/>
		<path fill="#009A91" d="M2017.722,217.631l-4.745,25.998c-0.56,3.171-2.7,5.128-6.422,5.87c-2.421,0.56-5.491,1.026-9.213,1.397
			c-3.726,0.371-7.726,0.742-12.005,1.117c-4.283,0.371-8.61,0.651-12.98,0.84c-4.375,0.184-8.423,0.278-12.145,0.278
			c-7.634,0-15.032-0.747-22.194-2.235c-7.166-1.489-13.447-4.006-18.845-7.549c-5.399-3.537-9.728-8.289-12.98-14.256
			c-3.259-5.963-4.886-13.322-4.886-22.084c0-2.049,0.14-4.236,0.418-6.568c0.279-2.328,0.604-4.797,0.979-7.408l25.404-144.523
			c0.371-1.489,1.209-2.795,2.513-3.914c1.3-1.118,2.696-1.677,4.188-1.677h36.571c2.976,0,4.468,1.494,4.468,4.473v1.118
			l-25.405,144.523c-0.56,2.796-0.837,5.22-0.837,7.269c0,4.474,1.208,7.548,3.629,9.226c2.417,1.678,6.324,2.516,11.726,2.516
			h48.019c3.161,0,4.745,1.586,4.745,4.753v0.837H2017.722z"/>
	</g>
</g>
<g id="Logo_1_" enable-background="new    ">
	<g id="Logo">
		<g>
			<path fill="#CC4029" d="M152.725,183.119l-64.35,64.351c-12.315,12.315-31.745,12.845-43.4,1.189
				c-11.669-11.669-11.143-31.103,1.172-43.417l64.138-64.139c-21.456-7.475-45.183-3.458-61.158,12.518l-32.305,32.306
				c-23.014,23.015-21.232,62.12,3.981,87.334c25.211,25.212,64.306,26.98,87.32,3.968l32.303-32.304
				c16.146-16.146,20.085-40.192,12.301-61.803L152.725,183.119z M273.296,20.774c-25.214-25.214-64.322-26.999-87.327-3.981
				L154.932,47.83c-15.979,15.979-20.001,39.703-12.519,61.156l64.016-64.016c12.315-12.316,31.748-12.84,43.416-1.171
				c11.653,11.652,11.125,31.085-1.188,43.398l-64.23,64.229c21.611,7.782,45.657,3.846,61.803-12.301l31.035-31.034
				C300.278,85.079,298.51,45.988,273.296,20.774z M88.884,205.191c6.396,6.396,16.824,6.354,23.292-0.113l93.164-93.163
				c6.458-6.484,6.508-16.896,0.113-23.292c-6.41-6.41-16.807-6.344-23.293,0.111l-0.016-0.016l-93.147,93.146l0.016,0.016
				l-0.017,0.017C82.527,188.366,82.474,198.781,88.884,205.191z"/>
		</g>
	</g>
</g>
</svg>
